Simulation
nRows=27
nColumns=15
endheader
time  TH_x TH_y TH_z SC_y  SC_z  SC_x  AC_y  AC_z  AC_x  GH_y  GH_z  GH_yy  EL_x  PS_y
0.0  0.000000  0.000000  0.000000  -20.59520031429764  6.3816590089745935  16.516363551596218  56.479044923415714  11.014916642186869  2.2190085969345033  41.20088812596907  57.614149147968384  -42.654068310943835  21.334868690649547  120.000000
0.04052287581699346  0.000000  0.000000  0.000000  -20.563185966369435  6.583511718659344  16.857624333655306  56.435614067522  11.476501416317358  3.011195584317327  40.58839584552551  58.63145676904281  -43.74926376099667  23.461876187502767  120.000000
0.08104575163398692  0.000000  0.000000  0.000000  -20.565362034140506  6.666134211335611  16.744017908141718  56.48875667578134  11.691105665192424  3.409292888148112  40.04335076884653  59.09821698976418  -44.80187122333634  25.35375301128386  120.000000
0.12156862745098038  0.000000  0.000000  0.000000  -20.53495170507513  6.598636435356287  16.37536737703538  56.596561487733645  11.815352055744583  3.526325177795945  39.59390723608448  59.12880903037737  -45.76689381621528  26.939662241333327  120.000000
0.16209150326797384  0.000000  0.000000  0.000000  -20.46814889806026  6.395729465289682  15.885738236771624  56.736696043864406  11.93544231312865  3.467849764363889  39.27860566994391  58.853070827073346  -46.620272541209616  28.21017137739771  120.000000
0.2026143790849673  0.000000  0.000000  0.000000  -20.374545513232274  6.107175676078552  15.366152834694251  56.880873076179476  12.090802940395902  3.325988556839167  39.106902617855404  58.407424786971355  -47.349591180158605  29.178461053556497  120.000000
0.24313725490196075  0.000000  0.000000  0.000000  -20.278246697557606  5.794154171752307  14.870044052945047  57.00555588464395  12.285270542632247  3.1675152550905383  39.06145242307603  57.912164520062476  -47.94685575467554  29.87533003422563  120.000000
0.28366013071895424  0.000000  0.000000  0.000000  -20.19396743168535  5.504458754487306  14.424135853389803  57.094659855786055  12.506444085846729  3.031552431235815  39.10810195949694  57.45402248784952  -48.406982469287335  30.330614906434874  120.000000
0.32418300653594767  0.000000  0.000000  0.000000  -20.123627926760882  5.269955899179437  14.038383638332169  57.13920202044043  12.734922462235938  2.93961078447408  39.209316547307225  57.083724840045356  -48.72386067594583  30.56856219814785  120.000000
0.3647058823529411  0.000000  0.000000  0.000000  -20.063351968769524  5.105323393291149  13.71466235946903  57.13890739947378  12.953366574108095  2.8996579791905708  39.33246628347095  56.82355607127838  -48.89103403032674  30.609769488688087  120.000000
0.4052287581699346  0.000000  0.000000  0.000000  -20.007012667654166  5.01253579588366  13.452368807739283  57.098230384399486  13.149580828853525  2.9114120009670303  39.4519425180816  56.67676856668922  -48.90110300304871  30.472563111461156  120.000000
0.4457516339869281  0.000000  0.000000  0.000000  -19.95055142180933  4.985957544224065  13.251349015122248  57.02518648870046  13.317310773317093  2.9700299599995565  39.549501446667115  56.635965909706954  -48.747440408255805  30.174031047284974  120.000000
0.4862745098039215  0.000000  0.000000  0.000000  -19.893363599874828  5.0160765462248715  13.112695279626807  56.92916393498799  13.454738448113371  3.0688626809378694  39.61313004158384  56.69000718113926  -48.424359202308736  29.73141367127981  120.000000
0.5267973856209149  0.000000  0.000000  0.000000  -19.838247927751993  5.092586706658292  13.03893061069623  56.820271563774085  13.563082198295769  3.201295472092065  39.6352835766094  56.8275734482908  -47.928091100394234  29.162253084685776  120.000000
0.5673202614379085  0.000000  0.000000  0.000000  -19.790458702773957  5.20609326548274  13.033280247547207  56.70816430623903  13.644575540684539  3.362043293172236  39.61181237520593  57.03967410835634  -47.25661351741035  28.484367403323745  120.000000
0.6078431372549019  0.000000  0.000000  0.000000  -19.756517888428565  5.349196303105357  13.09909696991006  56.60209352388042  13.701358683402042  3.547692866144954  39.54098293268965  57.31991728670615  -46.41030936857499  27.71573864145207  120.000000
0.6483660130718953  0.000000  0.000000  0.000000  -19.742966316915837  5.517055038579702  13.238907273208623  56.510358291307234  13.734204189474916  3.757206594894268  39.42362155363177  57.66475185679473  -45.39190318807418  26.87402837301983  120.000000
0.6888888888888888  0.000000  0.000000  0.000000  -19.755416678779408  5.707684238322371  13.453779351927034  56.44065298853114  13.74212643995913  3.992074998167191  39.263104591735555  58.072684385344  -44.20719488345064  25.976252557697933  120.000000
0.7294117647058822  0.000000  0.000000  0.000000  -19.797944920290703  5.921820316334708  13.742700329654044  56.39993201459479  13.722243409852242  4.256303698828783  39.065904558683364  58.543784629115606  -42.86495876418001  25.038484520472654  120.000000
0.7699346405228757  0.000000  0.000000  0.000000  -19.872974591405967  6.162572350389293  14.102501085527734  56.39467890839362  13.670324239378635  4.5561074852547065  38.841441809107685  59.078546706710334  -41.376862884752214  24.076127093534588  120.000000
0.8104575163398692  0.000000  0.000000  0.000000  -19.981442623711832  6.434638834652492  14.528013364621103  56.430849913105945  13.581618754344587  4.899234615348964  38.60199333404162  59.677126333770765  -39.75728974735659  23.104175360984332  120.000000
0.8509803921568626  0.000000  0.000000  0.000000  -20.12315839134195  6.743539804195885  15.012469749756107  56.51378021402702  13.45204905590167  5.29437431590031  38.36173908185049  60.33823848667022  -38.02320915593672  22.137407740087063  120.000000
0.8915032679738562  0.000000  0.000000  0.000000  -20.29717241626973  7.094677353868426  15.547824304285578  56.64777790607013  13.279417134996647  5.750197558494911  38.13600719401697  61.058378540373276  -36.194283451431176  21.19037431035255  120.000000
0.9320261437908496  0.000000  0.000000  0.000000  -20.50217648185027  7.492115992925386  16.12503103755996  56.83566221059728  13.064506943008432  6.27445789166189  37.94015888407168  61.83087432570207  -34.29337305272574  20.27723478834166  120.000000
0.972549019607843  0.000000  0.000000  0.000000  -20.736834344140917  7.937575815060611  16.734357642323264  57.07808309318988  12.811896602411826  6.872471914509391  37.78903203161286  62.645391960574486  -32.347599011011916  19.411271933422785  120.000000
1.0130718954248366  0.000000  0.000000  0.000000  -21.000518484334552  8.429231341245103  17.366123481039235  57.373231774518594  12.53024329439305  7.545864575301589  37.69624741523643  63.48740998602843  -30.388962251032094  18.604743879545136  120.000000
1.0535947712418299  0.000000  0.000000  0.000000  -21.293679185941816  8.960776957409962  18.011331895366155  57.71712608042647  12.232004863758393  8.29109487088873  37.67397266471372  64.33874256465782  -28.455051372438735  17.868860707995825  120.000000
